<svg width="135" height="49" viewBox="0 0 135 49" fill="none" xmlns="http://www.w3.org/2000/svg">
<path fill-rule="evenodd" clip-rule="evenodd" d="M0.455078 43.5789V-0.000976562H44.0349V43.5789H0.455078ZM4.10051 21.789C4.10051 31.8098 12.2242 39.9335 22.245 39.9335V39.9355C32.2658 39.9355 40.3895 31.8118 40.3895 21.791C40.3895 11.7702 32.2658 3.64652 22.245 3.64652C12.2242 3.64652 4.10051 11.7682 4.10051 21.789Z" fill="#EAE9E0"/>
<path fill-rule="evenodd" clip-rule="evenodd" d="M48.4729 19.9604H59.6014V19.2368C57.206 19.2368 56.5822 18.5382 56.5822 17.0161V11.901C57.0813 12.1505 57.9047 12.4 59.1523 12.3751C62.7703 12.2753 66.0389 10.6035 66.0389 5.88763C66.0389 1.79555 63.5438 -0.000976562 57.8298 -0.000976562H48.4729V0.722623C50.6687 0.722623 51.2425 1.42127 51.2425 2.94333V17.0161C51.2425 18.5382 50.6687 19.2368 48.4729 19.2368V19.9604ZM58.0544 10.7283C57.3807 10.7283 56.8068 10.5037 56.5822 10.354V2.29458C56.5822 2.02011 56.682 1.79555 56.9315 1.67079C57.2809 1.49613 57.73 1.39632 58.229 1.39632C60.0505 1.39632 60.849 2.99323 60.849 5.78783C60.849 8.50757 60.1254 10.7283 58.0544 10.7283Z" fill="#EAE9E0"/>
<path fill-rule="evenodd" clip-rule="evenodd" d="M72.1522 20.3596C76.3441 20.3596 78.8891 17.4153 78.8891 13.0987C78.8891 8.68223 76.3441 6.03734 72.1522 6.03734C67.9353 6.03734 65.4152 8.9567 65.4152 13.2733C65.4152 17.7148 67.9353 20.3596 72.1522 20.3596ZM72.6263 18.7877C70.8048 18.7877 70.0562 14.3962 70.0562 11.0027C70.0562 9.48068 70.4305 7.6093 71.6781 7.6093C73.4996 7.6093 74.2481 12.0008 74.2481 15.3942C74.2481 16.9163 73.8738 18.7877 72.6263 18.7877Z" fill="#EAE9E0"/>
<path d="M85.7799 9.23117C86.4786 8.00853 88.0006 6.03734 89.6724 6.03734C90.8451 6.03734 91.419 6.76094 91.419 8.05843C91.419 9.53059 90.6704 10.6285 89.5726 10.6285C88.9238 10.6285 88.6494 10.3789 88.1503 9.85496C87.6762 9.33097 87.5016 9.23117 87.2022 9.23117C86.5784 9.23117 85.9296 10.1793 85.7051 11.377V16.6169C85.7051 18.5881 86.254 19.137 88.6993 19.137V19.9604H79.3923V19.2368C80.8894 19.2368 81.2137 18.7378 81.2137 17.0161V10.6285C81.2137 8.73213 81.1638 8.283 79.6418 8.90679L79.3424 8.18319L84.9565 5.88763L85.7051 6.46152V9.23117H85.7799Z" fill="#EAE9E0"/>
<path d="M100.636 13.8223C100.636 16.4672 100.187 17.8395 99.2134 17.8395C98.415 17.8395 97.9908 16.8664 97.9908 15.0449V7.93367H100.81V6.53638H97.891V2.66886H96.4438C95.8699 5.36365 93.7989 6.48648 91.9026 6.61123V7.93367H93.5244V15.2445C93.5244 19.0621 94.9467 20.3596 97.367 20.3596C100.436 20.3596 101.584 18.2387 101.584 13.8223H100.636Z" fill="#EAE9E0"/>
<path fill-rule="evenodd" clip-rule="evenodd" d="M114.173 18.663C114.672 18.663 115.071 18.1639 115.171 16.8166H115.895C115.67 19.1121 114.747 20.3347 112.501 20.3347C110.68 20.3347 109.482 19.4864 109.258 16.9164H109.158C108.858 18.7877 107.511 20.3597 105.29 20.3597C103.269 20.3597 102.072 19.0373 102.072 17.2906C102.072 14.328 105.506 13.0097 108.421 11.891C108.697 11.7848 108.969 11.6805 109.233 11.5767V10.1295C109.233 8.00859 108.734 7.30994 107.736 7.30994C106.962 7.30994 106.513 7.75907 106.513 8.38287C106.513 8.62842 106.584 8.87397 106.66 9.13494C106.746 9.43084 106.837 9.74655 106.837 10.1045C106.837 11.0777 106.164 11.8262 104.866 11.8262C103.544 11.8262 102.82 11.0527 102.82 9.90492C102.82 7.85888 105.041 6.01245 108.434 6.01245C111.928 6.01245 113.674 7.88383 113.674 10.7034V17.4653C113.674 18.3636 113.774 18.663 114.173 18.663ZM106.363 15.9931C106.363 16.8665 106.812 17.2158 107.361 17.2158C108.085 17.2158 108.858 16.6169 109.233 15.5191V12.5997C107.661 13.3732 106.363 14.5459 106.363 15.9931Z" fill="#EAE9E0"/>
<path d="M122.895 0.494056L122.28 0.0221057L116.745 0.77693L116.573 1.49219C118.127 1.49219 118.362 1.91156 118.362 3.14418C118.362 5.59565 118.362 7.82671 118.362 10.0578C118.362 12.2888 118.362 14.5199 118.362 16.9714C118.362 18.7076 117.984 19.2109 116.348 19.2109V19.9407H124.904V19.2109C123.243 19.2109 122.891 18.7076 122.891 16.9714L122.895 0.494056Z" fill="#EAE9E0"/>
<path fill-rule="evenodd" clip-rule="evenodd" d="M58.7345 43.5466C63.4067 43.5466 66.5048 41.8976 66.5048 38.1249C66.5048 35.4516 64.6059 33.5527 61.1081 33.3778V33.178C63.7315 32.8782 65.6553 31.3291 65.6553 28.5058C65.6553 25.2079 63.2817 23.5589 58.9594 23.5589H48.4908V24.2834C50.6895 24.2834 51.2641 24.983 51.2641 26.5071V40.5984C51.2641 42.1225 50.6895 42.822 48.4908 42.822V43.5466H58.7345ZM56.4859 25.6576C56.4859 25.3578 56.5859 25.1579 56.9107 25.058C57.1605 24.983 57.5353 24.958 57.8101 24.958C59.5091 24.958 60.6084 26.1823 60.6084 28.7807C60.6084 31.3541 59.559 32.6533 57.6852 32.6533C57.3854 32.6533 56.9356 32.6283 56.4859 32.5284V25.6576ZM56.4859 34.1274C56.9356 34.0274 57.3604 34.0025 57.7351 34.0025C59.7339 34.0025 61.3579 34.9519 61.3579 38.1249C61.3579 41.273 59.8089 42.1475 57.96 42.1475C57.0356 42.1475 56.4859 41.9226 56.4859 41.4479V34.1274Z" fill="#EAE9E0"/>
<path fill-rule="evenodd" clip-rule="evenodd" d="M74.1481 43.5945C78.3456 43.5945 80.894 40.6463 80.894 36.324C80.894 31.9017 78.3456 29.2534 74.1481 29.2534C69.9257 29.2534 67.4023 32.1766 67.4023 36.4989C67.4023 40.9462 69.9257 43.5945 74.1481 43.5945ZM74.6228 42.0205C72.799 42.0205 72.0494 37.6232 72.0494 34.2253C72.0494 32.7012 72.4242 30.8274 73.6734 30.8274C75.4973 30.8274 76.2468 35.2247 76.2468 38.6226C76.2468 40.1467 75.8721 42.0205 74.6228 42.0205Z" fill="#EAE9E0"/>
<path d="M91.6627 39.3721C91.6627 42.3203 89.4641 43.5945 87.0156 43.5945C85.3916 43.5945 84.3672 43.0449 83.7426 42.6201C83.4178 42.3953 83.193 42.4452 83.043 42.77L82.7932 43.2947H82.0936L81.8438 37.5732H82.5683C82.9931 40.2216 84.4922 42.1454 86.4909 42.1454C87.4903 42.1454 88.04 41.6207 88.04 40.6214C88.04 39.7719 87.6152 39.4221 85.2167 37.7981C82.8432 36.1991 82.0437 35.0248 82.0437 33.4258C82.0437 30.7524 84.0924 29.2534 86.4909 29.2534C87.7402 29.2534 88.6646 29.753 89.2142 30.1778C89.564 30.4276 89.8139 30.3527 89.9638 30.0279L90.2136 29.4283H90.9132L91.1381 34.1254H90.4385C89.9638 32.2265 88.5646 30.6775 86.9157 30.6775C86.0662 30.6775 85.6165 31.2022 85.6165 31.8767C85.6165 32.7262 86.1162 33.076 88.065 34.4252C90.3635 35.9992 91.6627 37.0985 91.6627 39.3721Z" fill="#EAE9E0"/>
<path fill-rule="evenodd" clip-rule="evenodd" d="M102.843 30.6525C101.194 29.5532 99.9445 29.2534 98.4704 29.2534C94.4479 29.2534 92.599 32.4014 92.599 36.9236C92.599 41.6457 94.6977 43.5196 97.0713 43.5196C98.8952 43.5196 100.069 42.4203 100.869 40.7713H100.969V45.7432C100.969 47.4921 100.569 47.9669 98.7702 47.9669V48.6914H107.49V47.9669C105.841 47.9669 105.491 47.4921 105.491 45.7432V29.6281L104.877 29.1597L102.843 30.6525ZM100.969 39.3721C100.441 40.4155 99.7446 40.8712 99.145 40.8712C97.9707 40.8712 97.3211 39.3971 97.3211 36.2491C97.3211 33.4758 97.7958 31.1772 99.2949 31.1772C100.019 31.1772 100.944 31.7518 100.969 34.3502V39.3721Z" fill="#EAE9E0"/>
<path d="M122.566 41.7457L117.045 43.6195L116.145 42.9449V40.5214H116.07C115.071 42.0955 114.047 43.5945 111.773 43.5945C109.867 43.5945 108.377 42.1714 108.351 39.5682V32.2417C108.351 31.0286 108.117 30.6159 106.578 30.6159L106.748 29.9119L112.215 29.169L112.825 29.6335L112.822 39.0973C112.822 40.4465 113.147 40.9961 113.947 40.9961C114.771 40.9961 115.446 40.1966 116.145 39.1223C116.145 37.972 116.147 36.8217 116.148 35.6714C116.149 34.5282 116.15 33.385 116.15 32.2417C116.15 31.0286 115.919 30.6159 114.39 30.6159L114.559 29.9119L120.006 29.169L120.611 29.6335L120.618 39.1723C120.618 41.0711 120.718 41.5458 122.317 40.9961L122.566 41.7457Z" fill="#EAE9E0"/>
<path fill-rule="evenodd" clip-rule="evenodd" d="M133.617 37.6982C132.992 39.8968 131.693 40.6214 130.619 40.6214C128.545 40.6214 127.571 39.0473 127.446 35.9492H134.241C134.241 32.4264 132.842 29.2534 128.895 29.2534C125.172 29.2534 123.023 32.8511 123.023 36.7238C123.023 41.221 125.372 43.5945 128.695 43.5945C131.743 43.5945 133.617 41.8206 134.341 37.6982H133.617ZM128.82 30.6775C129.894 30.6775 129.969 31.9267 129.969 34.5501H127.421C127.446 31.8518 127.645 30.6775 128.82 30.6775Z" fill="#EAE9E0"/>
</svg>
